<mxfile host="Electron" modified="2023-05-20T14:53:51.587Z" agent="Mozilla/5.0 (Windows NT 10.0; Win64; x64) AppleWebKit/537.36 (KHTML, like Gecko) draw.io/21.2.1 Chrome/112.0.5615.87 Electron/24.1.2 Safari/537.36" etag="Y2E2s13_y9Rj79TskZmB" version="21.2.1" type="device">
  <diagram name="第 1 页" id="FVCsGFzGgoVXtkz4YuUc">
    <mxGraphModel dx="1044" dy="359" grid="0" gridSize="10" guides="1" tooltips="1" connect="1" arrows="1" fold="1" page="0" pageScale="1" pageWidth="827" pageHeight="1169" math="0" shadow="0">
      <root>
        <mxCell id="0" />
        <mxCell id="1" parent="0" />
        <mxCell id="esQeFeYKRBchSjUG8Jbl-1" value="角色" style="rounded=0;whiteSpace=wrap;html=1;strokeColor=#0F8B8D;fontSize=16;fontColor=#143642;fillColor=#FAE5C7;labelBackgroundColor=none;" vertex="1" parent="1">
          <mxGeometry x="326" y="248" width="120" height="60" as="geometry" />
        </mxCell>
        <mxCell id="esQeFeYKRBchSjUG8Jbl-2" value="结果" style="ellipse;whiteSpace=wrap;html=1;strokeColor=#0F8B8D;fontSize=16;fontColor=#143642;fillColor=#FAE5C7;labelBackgroundColor=none;" vertex="1" parent="1">
          <mxGeometry x="496" y="338" width="80" height="60" as="geometry" />
        </mxCell>
        <mxCell id="esQeFeYKRBchSjUG8Jbl-3" value="状态" style="ellipse;whiteSpace=wrap;html=1;strokeColor=#0F8B8D;fontSize=16;fontColor=#143642;fillColor=#FAE5C7;labelBackgroundColor=none;" vertex="1" parent="1">
          <mxGeometry x="556" y="248" width="80" height="60" as="geometry" />
        </mxCell>
        <mxCell id="esQeFeYKRBchSjUG8Jbl-4" value="创建时间" style="ellipse;whiteSpace=wrap;html=1;strokeColor=#0F8B8D;fontSize=16;fontColor=#143642;fillColor=#FAE5C7;labelBackgroundColor=none;" vertex="1" parent="1">
          <mxGeometry x="346" y="378" width="80" height="60" as="geometry" />
        </mxCell>
        <mxCell id="esQeFeYKRBchSjUG8Jbl-5" value="标志" style="ellipse;whiteSpace=wrap;html=1;strokeColor=#0F8B8D;fontSize=16;fontColor=#143642;fillColor=#FAE5C7;labelBackgroundColor=none;" vertex="1" parent="1">
          <mxGeometry x="196" y="338" width="80" height="60" as="geometry" />
        </mxCell>
        <mxCell id="esQeFeYKRBchSjUG8Jbl-6" value="名称" style="ellipse;whiteSpace=wrap;html=1;strokeColor=#0F8B8D;fontSize=16;fontColor=#143642;fillColor=#FAE5C7;labelBackgroundColor=none;" vertex="1" parent="1">
          <mxGeometry x="146" y="248" width="80" height="60" as="geometry" />
        </mxCell>
        <mxCell id="esQeFeYKRBchSjUG8Jbl-8" value="ID" style="ellipse;whiteSpace=wrap;html=1;strokeColor=#0F8B8D;fontSize=16;fontColor=#143642;fillColor=#FAE5C7;labelBackgroundColor=none;" vertex="1" parent="1">
          <mxGeometry x="346" y="118" width="80" height="60" as="geometry" />
        </mxCell>
        <mxCell id="esQeFeYKRBchSjUG8Jbl-10" value="" style="endArrow=none;html=1;rounded=0;strokeColor=#A8201A;fontSize=12;fontColor=default;startSize=8;endSize=8;fillColor=#FAE5C7;curved=1;entryX=0.5;entryY=1;entryDx=0;entryDy=0;exitX=0.5;exitY=0;exitDx=0;exitDy=0;labelBackgroundColor=none;" edge="1" parent="1" source="esQeFeYKRBchSjUG8Jbl-1" target="esQeFeYKRBchSjUG8Jbl-8">
          <mxGeometry width="50" height="50" relative="1" as="geometry">
            <mxPoint x="256" y="328" as="sourcePoint" />
            <mxPoint x="306" y="278" as="targetPoint" />
          </mxGeometry>
        </mxCell>
        <mxCell id="esQeFeYKRBchSjUG8Jbl-13" value="" style="endArrow=none;html=1;rounded=0;strokeColor=#A8201A;fontSize=12;fontColor=default;startSize=8;endSize=8;fillColor=#FAE5C7;curved=1;entryX=0;entryY=0.5;entryDx=0;entryDy=0;exitX=1;exitY=0.5;exitDx=0;exitDy=0;labelBackgroundColor=none;" edge="1" parent="1" source="esQeFeYKRBchSjUG8Jbl-6" target="esQeFeYKRBchSjUG8Jbl-1">
          <mxGeometry width="50" height="50" relative="1" as="geometry">
            <mxPoint x="256" y="328" as="sourcePoint" />
            <mxPoint x="306" y="278" as="targetPoint" />
          </mxGeometry>
        </mxCell>
        <mxCell id="esQeFeYKRBchSjUG8Jbl-14" value="" style="endArrow=none;html=1;rounded=0;strokeColor=#A8201A;fontSize=12;fontColor=default;startSize=8;endSize=8;fillColor=#FAE5C7;curved=1;entryX=0;entryY=0.5;entryDx=0;entryDy=0;exitX=1;exitY=0.5;exitDx=0;exitDy=0;labelBackgroundColor=none;" edge="1" parent="1" source="esQeFeYKRBchSjUG8Jbl-1" target="esQeFeYKRBchSjUG8Jbl-3">
          <mxGeometry width="50" height="50" relative="1" as="geometry">
            <mxPoint x="256" y="328" as="sourcePoint" />
            <mxPoint x="306" y="278" as="targetPoint" />
          </mxGeometry>
        </mxCell>
        <mxCell id="esQeFeYKRBchSjUG8Jbl-15" value="" style="endArrow=none;html=1;rounded=0;strokeColor=#A8201A;fontSize=12;fontColor=default;startSize=8;endSize=8;fillColor=#FAE5C7;curved=1;entryX=0;entryY=1;entryDx=0;entryDy=0;exitX=1;exitY=0.5;exitDx=0;exitDy=0;labelBackgroundColor=none;" edge="1" parent="1" source="esQeFeYKRBchSjUG8Jbl-5" target="esQeFeYKRBchSjUG8Jbl-1">
          <mxGeometry width="50" height="50" relative="1" as="geometry">
            <mxPoint x="256" y="328" as="sourcePoint" />
            <mxPoint x="306" y="278" as="targetPoint" />
          </mxGeometry>
        </mxCell>
        <mxCell id="esQeFeYKRBchSjUG8Jbl-16" value="" style="endArrow=none;html=1;rounded=0;strokeColor=#A8201A;fontSize=12;fontColor=default;startSize=8;endSize=8;fillColor=#FAE5C7;curved=1;entryX=0.5;entryY=1;entryDx=0;entryDy=0;exitX=0.5;exitY=0;exitDx=0;exitDy=0;labelBackgroundColor=none;" edge="1" parent="1" source="esQeFeYKRBchSjUG8Jbl-4" target="esQeFeYKRBchSjUG8Jbl-1">
          <mxGeometry width="50" height="50" relative="1" as="geometry">
            <mxPoint x="256" y="328" as="sourcePoint" />
            <mxPoint x="306" y="278" as="targetPoint" />
          </mxGeometry>
        </mxCell>
        <mxCell id="esQeFeYKRBchSjUG8Jbl-17" value="" style="endArrow=none;html=1;rounded=0;strokeColor=#A8201A;fontSize=12;fontColor=default;startSize=8;endSize=8;fillColor=#FAE5C7;curved=1;entryX=1;entryY=1;entryDx=0;entryDy=0;exitX=0;exitY=0;exitDx=0;exitDy=0;labelBackgroundColor=none;" edge="1" parent="1" source="esQeFeYKRBchSjUG8Jbl-2" target="esQeFeYKRBchSjUG8Jbl-1">
          <mxGeometry width="50" height="50" relative="1" as="geometry">
            <mxPoint x="256" y="328" as="sourcePoint" />
            <mxPoint x="306" y="278" as="targetPoint" />
          </mxGeometry>
        </mxCell>
      </root>
    </mxGraphModel>
  </diagram>
</mxfile>
